<svg height="200" width="200" xmlns="http://www.w3.org/2000/svg"><path d="m0 0h200v200h-200z" fill="none"/><path d="m80.068 54.827c1.321-.812 8.439-4.594 19.923.146 11.812 4.875 19.142.642 20.052.065-2.856-4.694-6.252-8.78-10.008-11.527.25-.068.506-.138.776-.218 4.979-1.44 6.244-5.657 6.511-9.268.301-4.096.509-4.159 1.399-7.843.854-3.539-.099-4.247-.977-3.533-.473.384-4.589 1.335-7.031 3.24-3.941 3.076-6.371 8.924-7.473 12.158-.021.05-.17.499-.22.655-.513 1.239-1.535 1.235-1.535 1.235v.001c-.496-.054-.994-.083-1.495-.083-.447 0-.892.024-1.336.066-.01.002-.015 0-.026.001-1.307.193-2.025-1.403-2.176-1.784-1.527-4.385-5.635-13.032-14.868-15.359 0 0-1.677-1.284-1.166.888.486 2.076 1.492 4.175 1.268 7.227-.102 1.409-.976 8.633 5.664 12.393.631.356 1.192.657 1.695.91-3.341 2.678-6.378 6.402-8.977 10.63zm43.592 66.069c-8.137-5.042-10.875-6.814-10.703-8.742 0 0 .002-.313.082-.793.197-1.021.822-2.767 2.816-3.763.065-.032.12-.068.172-.106 6.339-3.679 10.971-9.602 12.604-16.997-1.646 4.084-13.836 7.259-28.643 7.259-14.801 0-26.995-3.174-28.639-7.259.366 1.66.887 3.243 1.541 4.748.55 3.097 1.291 10.387-2.21 16.767-3.085 5.623-18.312 13.286-40.911 8.887 0 0-.907-.632-1.181-.111-.405.769 1.253 1.393 2.963 1.843 15.733 4.167 39.481 2.472 46.939-3.673 3.403-2.802 4.715-6.575 5.049-10.638l.003.007s.091-1.064 1.421-.265c.381.229 1.756 1.124 1.976 2.137.192 1.441.205 3.21-.54 4.449-1.063 1.772-1.075 2.026.325 3.028.859.612 4.371 3.194 9.257 6.13.013.008.019.015.032.022 1.034.623 2.47 2.146 2.47 2.146 2.201 2.546 6.988 7.669 9.071 6.703.984-.453-.041-2.506-.041-2.506s1.637 2.126 2.516 1.4c.668-.552-.391-2.668-.391-2.668s1.429 1.239 2.278.78c1.04-.561-.154-3.815-8.332-8.786-8.182-4.976-10.399-5.737-10.594-7.959 0 0-.004-.111.003-.302.064-.49.342-1.526 1.531-1.416 1.77.286 3.595.439 5.464.439 2.139 0 4.222-.196 6.23-.571v.004s.104-.021.136-.027c.235-.029.692-.015.694.555-.074.723-.273 1.448-.698 2.083-1.197 1.792-.804 2.039.446 3.189.771.712 4.308 3.823 9.152 6.833.01.008.014.013.025.021 1.033.621 2.819 2.327 2.819 2.327 2.008 2.037 5.7 5.453 7.712 5.247 1.36-.141.252-2.482.252-2.482s1.719 1.658 2.562 1.171c.944-.545-.391-2.278-.391-2.278s1.106.585 1.887.391c.787-.195.982-2.185-7.154-7.224z"/><path d="m114.57 63.932c-.977 0-1.787.294-2.408.874-.628.587-.945 1.265-.945 2.016v13.274c0 1.781-.315 3.094-.938 3.903-.602.783-1.564 1.163-2.94 1.163-1.407 0-2.367-.377-2.934-1.154-.592-.81-.892-2.125-.892-3.912v-13.326c0-.908-.413-1.65-1.197-2.146-1.065-.671-2.125-.914-3.414-.485-.394.131-.764.303-1.102.509-.359.219-.663.494-.903.814-.267.356-.402.745-.402 1.154v13.481c0 1.784-.3 3.1-.892 3.911-.569.777-1.528 1.155-2.934 1.155-1.41 0-2.379-.379-2.963-1.158-.607-.81-.915-2.125-.915-3.907v-13.276c0-.75-.318-1.429-.947-2.016-.622-.58-1.448-.874-2.458-.874-1.041 0-1.899.291-2.551.864-.67.587-1.01 1.269-1.01 2.026v13.067c0 1.644.16 3.199.476 4.62.324 1.453.89 2.728 1.683 3.791.8 1.074 1.886 1.921 3.229 2.522 1.329.592 2.99.892 4.939.892 2.031 0 3.732-.376 5.056-1.119 1.11-.624 2.045-1.442 2.787-2.44.716.998 1.629 1.816 2.723 2.439 1.307.743 3.034 1.12 5.136 1.12 1.949 0 3.604-.301 4.917-.894 1.323-.6 2.399-1.447 3.201-2.52.793-1.066 1.358-2.342 1.682-3.791.314-1.421.476-2.976.476-4.62v-13.067c0-.753-.33-1.433-.979-2.021-.635-.577-1.505-.869-2.581-.869z"/><path d="m54.907 160.536c-.434 0-.794.13-1.07.388-.278.261-.419.562-.419.895v5.896c0 .793-.141 1.374-.417 1.734-.267.348-.695.516-1.305.516-.626 0-1.052-.168-1.303-.512-.263-.36-.396-.944-.396-1.738v-5.918c0-.403-.184-.733-.531-.954-.473-.298-.944-.405-1.516-.215a2.379 2.379 0 0 0 -.49.226c-.159.097-.294.22-.4.361-.119.159-.179.332-.179.512v5.988c0 .793-.133 1.378-.396 1.738-.253.344-.679.512-1.304.512-.626 0-1.056-.168-1.316-.514-.269-.36-.406-.943-.406-1.736v-5.896c0-.333-.141-.634-.42-.895-.276-.258-.643-.388-1.092-.388-.462 0-.844.13-1.133.384-.298.261-.449.563-.449.898v5.805c0 .731.071 1.421.212 2.054.143.645.394 1.21.747 1.683.355.478.837.854 1.435 1.12.59.263 1.328.396 2.193.396.902 0 1.658-.168 2.247-.497.493-.277.908-.64 1.237-1.083.318.443.723.806 1.21 1.083.58.329 1.347.497 2.28.497.866 0 1.601-.134 2.185-.396.587-.267 1.065-.643 1.422-1.12.353-.474.604-1.04.747-1.683.139-.633.21-1.322.21-2.054v-5.805c0-.333-.146-.636-.434-.896-.285-.256-.672-.386-1.149-.386zm17.112 1.359c-.409-.426-.94-.762-1.578-1.002-.633-.235-1.391-.356-2.251-.356-.928 0-1.752.164-2.45.49-.696.324-1.283.755-1.742 1.277-.458.522-.812 1.114-1.047 1.764-.237.646-.357 1.311-.357 1.974v2.02c0 .6.092 1.19.273 1.759.184.574.463 1.091.829 1.536.369.45.848.819 1.422 1.099.577.279 1.255.422 2.017.422.471 0 .875-.036 1.203-.108.332-.072.625-.18.871-.32.246-.139.459-.301.633-.482.104-.11.205-.228.301-.35v.092c0 .333.142.636.42.896.276.257.635.387 1.069.387.478 0 .865-.128 1.147-.386.288-.261.434-.562.434-.896v-6.424c0-.676-.097-1.309-.286-1.877-.194-.581-.499-1.091-.908-1.515zm-4.823 1.751c.293-.132.627-.198.994-.198.635 0 1.127.141 1.463.422.324.271.489.764.489 1.461v2.156c0 .412-.071.778-.211 1.084-.141.31-.325.569-.548.771-.223.203-.482.358-.77.465-.289.105-.593.158-.904.158-.562 0-1.019-.177-1.395-.539-.375-.36-.557-.778-.557-1.275v-2.201c0-.34.06-.661.18-.956.12-.296.288-.566.5-.799.208-.231.463-.415.759-.549zm14.161-7.01c-.461 0-.843.13-1.133.384-.297.262-.449.564-.449.899v13.675c0 .335.151.638.449.898.29.254.672.384 1.133.384.45 0 .817-.13 1.093-.388.278-.261.42-.563.42-.895v-13.675c0-.332-.142-.633-.42-.894-.276-.258-.643-.388-1.093-.388zm9.796 0c-.461 0-.843.13-1.133.384-.297.262-.449.564-.449.899v13.675c0 .335.151.638.449.898.29.254.672.384 1.133.384.449 0 .817-.13 1.092-.388.278-.261.421-.563.421-.895v-13.675c0-.332-.143-.633-.421-.894-.275-.258-.642-.388-1.092-.388zm17.204 5.259c-.409-.426-.94-.762-1.578-1.002-.634-.235-1.392-.356-2.251-.356-.928 0-1.752.164-2.449.49-.696.324-1.283.753-1.743 1.277-.458.521-.81 1.114-1.047 1.764-.236.646-.357 1.311-.357 1.974v2.02c0 .599.092 1.19.274 1.759.183.572.461 1.09.829 1.536.369.45.848.819 1.421 1.099.578.279 1.257.422 2.019.422.471 0 .875-.036 1.202-.108.331-.072.625-.18.871-.32.245-.139.457-.301.632-.482.104-.11.205-.228.301-.35v.092c0 .333.142.636.421.896.274.257.635.387 1.069.387.479 0 .863-.128 1.147-.386.287-.259.433-.562.433-.896v-6.424c0-.676-.095-1.309-.285-1.877-.193-.581-.498-1.089-.909-1.515zm-4.823 1.751c.293-.132.627-.198.994-.198.635 0 1.126.141 1.462.422.324.271.489.762.489 1.461v2.156c0 .412-.071.776-.211 1.084-.14.31-.325.569-.547.771-.224.203-.483.358-.771.465a2.644 2.644 0 0 1 -.905.158c-.562 0-1.018-.177-1.395-.539-.374-.36-.558-.778-.558-1.275v-2.201c0-.34.062-.661.182-.956.119-.296.287-.564.5-.799.211-.231.466-.415.76-.549zm22.006-1.51c-.416-.503-.951-.9-1.59-1.18-.637-.279-1.398-.42-2.262-.42-.607 0-1.16.11-1.644.328-.38.171-.714.401-.997.687v-3.632c0-.332-.141-.635-.42-.894-.276-.26-.644-.39-1.092-.39-.462 0-.843.13-1.133.384-.298.262-.449.564-.449.899v10.21c0 .682.117 1.319.348 1.898.231.584.584 1.1 1.049 1.531.462.431 1.046.77 1.736 1.008.682.235 1.488.354 2.396.354.881 0 1.66-.147 2.32-.441.658-.294 1.218-.697 1.663-1.198.446-.502.78-1.09.994-1.747.212-.652.32-1.356.32-2.093v-1.332c0-.796-.104-1.538-.308-2.205-.204-.672-.518-1.266-.931-1.767zm-4.058 7.876c-.707 0-1.303-.151-1.771-.45-.445-.283-.663-.723-.663-1.343v-2.63c.029-.745.247-1.293.649-1.628.411-.341.935-.514 1.555-.514.729 0 1.3.224 1.746.683.441.456.665 1.137.665 2.024v1.377c0 .757-.202 1.367-.603 1.813-.398.45-.914.668-1.578.668zm20.416-8.117c-.41-.426-.941-.762-1.579-1.002-.633-.235-1.391-.356-2.251-.356-.928 0-1.752.164-2.449.49-.695.324-1.282.753-1.742 1.277a5.5322 5.5322 0 0 0 -1.048 1.764c-.236.646-.356 1.311-.356 1.974v2.02c0 .599.092 1.19.272 1.759.184.572.463 1.09.829 1.536.369.45.848.819 1.422 1.099.577.279 1.256.422 2.017.422.472 0 .876-.036 1.203-.108.331-.072.625-.18.871-.32.245-.139.458-.301.632-.482.104-.11.205-.228.301-.35v.092c0 .333.143.636.421.896.275.257.635.387 1.069.387.478 0 .864-.128 1.147-.386.288-.259.434-.562.434-.896v-6.424c0-.676-.096-1.309-.285-1.877-.193-.581-.497-1.089-.908-1.515zm-4.824 1.751c.294-.132.628-.198.994-.198.636 0 1.127.141 1.463.422.324.271.488.762.488 1.461v2.156c0 .412-.07.776-.211 1.084-.141.31-.325.569-.547.771-.224.203-.483.358-.771.465-.289.105-.594.158-.904.158-.562 0-1.018-.177-1.396-.539-.375-.36-.557-.778-.557-1.275v-2.201c0-.34.061-.661.181-.956.119-.296.288-.564.5-.799.21-.231.466-.415.76-.549zm22.294-.356c-.193-.562-.499-1.056-.909-1.466-.409-.409-.939-.733-1.578-.966-.633-.229-1.39-.346-2.249-.346-.928 0-1.748.166-2.439.49-.688.324-1.271.758-1.729 1.291-.461.53-.81 1.151-1.038 1.847-.228.691-.343 1.414-.343 2.153v1.353c0 1.604.41 2.888 1.22 3.817.817.937 1.989 1.412 3.48 1.412.797 0 1.451-.141 1.947-.416.337-.188.623-.416.854-.683v.664c0 .509-.057.921-.17 1.226-.11.295-.262.529-.449.698-.188.166-.412.281-.668.343-.274.064-.583.098-.916.098-.552 0-.981-.029-1.28-.089-.328-.062-.578-.094-.762-.094-.481 0-.85.119-1.095.355-.246.237-.372.557-.372.949 0 .531.287.983.889 1.361.215.083.553.155 1.033.22.467.062 1.001.092 1.587.092.689 0 1.36-.103 1.989-.308.635-.205 1.203-.524 1.689-.945.487-.424.879-.966 1.165-1.609s.431-1.416.431-2.297v-7.364c-.001-.631-.097-1.232-.287-1.786zm-5.722.354c.29-.146.622-.22.986-.22.638 0 1.132.132 1.468.393.325.252.483.634.483 1.169v2.859c-.028.74-.247 1.265-.669 1.604-.433.348-.936.517-1.534.517-1.469 0-2.182-.728-2.182-2.227v-1.537c0-.387.062-.754.183-1.09.121-.333.29-.628.503-.875.21-.248.467-.448.762-.593z"/></svg>