<?xml version="1.0" encoding="utf-8"?>
<!-- Generated by IcoMoon.io -->
<!DOCTYPE svg PUBLIC "-//W3C//DTD SVG 1.1//EN" "http://www.w3.org/Graphics/SVG/1.1/DTD/svg11.dtd">
<svg version="1.1" xmlns="http://www.w3.org/2000/svg" xmlns:xlink="http://www.w3.org/1999/xlink" width="640" height="640" viewBox="0 0 640 640"><g id="icomoon-ignore">
</g>
<path d="M554.848 137.824c0-36.8-55.424-40.864-55.424-40.864l-130.208-8.192c0 0-2.784-35.424-29.088-47.744-26.304-12.256-55.232-8.512-76.032-8.32-20.8 0.224-25.696 26.72-25.696 51.744 0 24.992 0.448 53.888 0.448 72 0 32.576-14.304 46.368-50.112 46.368h-73.824c-20.64-1.312-36.704 2.048-36.704 18.752 0 16.736 24.288 159.136 57.632 192 19.36 19.072 137.76 32.448 162.688 32.448s16.608-73.632 23.552-73.632c6.944 0 14.528 41.568 53.824 51.296 39.232 9.824 91.648 8 94.432 35.936 3.616 36.864 6.944 84.544-17.312 87.936l-54.912 2.176c-37.632-2.688-27.52-43.808-10.912-43.808s24.928-0.608 24.928-0.608l2.080-44.992c0 0-86.176-10.176-89.824 47.936-3.36 53.12 5.76 78.176 12.448 83.616 6.688 5.504 18.272 16.128 123.808 16.128 148.704 0 94.208-433.376 94.208-470.176zM494.080 330.24c-5.824 6.272-26.944-10.24-47.104-10.24-20.192 0-41.952 10.688-47.072 3.616-5.12-7.008 4.672-63.68 42.688-63.68s57.376 64.128 51.488 70.304z" fill="rgb(68, 68, 68)"></path>
<path d="M185.728 133.312c0-7.328 1.856-95.488 1.856-95.488l-112.16 110.080c0 0 77.504 0 92.736 0 15.232-0.032 17.568-7.328 17.568-14.592z" fill="rgb(68, 68, 68)"></path>
</svg>
